<svg xmlns="http://www.w3.org/2000/svg" viewBox="0 0 128 128"><defs><style>.cls-1{fill:#0277BD;}</style></defs><title>Asset 1</title><g id="Layer_2" data-name="Layer 2"><g id="Layer_1-2" data-name="Layer 1"><path class="cls-1" d="M64,128a64,64,0,1,1,64-64A64.07,64.07,0,0,1,64,128ZM64,5a59,59,0,1,0,59,59A59.07,59.07,0,0,0,64,5Z"/><path class="cls-1" d="M104.07,107.26a58.88,58.88,0,0,1-80.09,0C28.79,101.44,44.32,99,50,94.67c2.89-2.18,2.17-14.34,2.17-14.34s-5.42-2.58-6.67-13.16c-3.75,0-7.75-11.67-1.83-11.5-1.33-4.63-4.42-10.42-3-19C44.45,14,76.16,16.25,75,24.12c11.12-2.5,16.12,16.63,9.17,31.38,5.71-.38,3.08,11.5-2.29,11.5a15.74,15.74,0,0,1-5.71,13.33s-.8,9.59.83,12.17C81,98.82,99,101,104.07,107.26Z"/></g></g></svg>